<?xml version="1.0" standalone="no"?><!DOCTYPE svg PUBLIC "-//W3C//DTD SVG 1.1//EN" "http://www.w3.org/Graphics/SVG/1.1/DTD/svg11.dtd"><svg t="1557195793097" class="icon" style="" viewBox="0 0 1024 1024" version="1.1" xmlns="http://www.w3.org/2000/svg" p-id="2200" xmlns:xlink="http://www.w3.org/1999/xlink" width="200" height="200"><defs><style type="text/css"></style></defs><path d="M910.423 893.2L790.027 772.662c31.305-42.579 49.833-95.127 49.833-151.932 0-141.624-115.086-256.85-256.54-256.85S326.785 479.106 326.785 620.73c0 141.626 115.081 256.85 256.535 256.85 56.737 0 109.222-18.55 151.75-49.893l120.397 120.538c7.59 7.593 17.532 11.393 27.479 11.393s19.888-3.8 27.478-11.394c15.174-15.198 15.174-39.832-0.001-55.024zM583.32 814.359c-106.638 0-193.39-86.863-193.39-193.629 0-106.766 86.752-193.628 193.39-193.628 106.637 0 193.395 86.861 193.395 193.628 0 106.767-86.758 193.629-193.395 193.629z" fill="#ffffff" p-id="2201"></path><path d="M251.215 631.364c0-181.288 146.78-328.252 327.844-328.252 110.88 0 208.904 55.113 268.236 139.473V124.164c0-32.988-26.736-59.78-59.715-59.78H161.91c-32.977 0-59.714 26.763-59.714 59.779v775.672c0 32.99 26.735 59.782 59.715 59.782h417.148c-181.063 0-327.844-146.964-327.844-328.253z m-29.803-447.616c0-16.481 13.344-29.841 29.804-29.841h447.06c16.46 0 29.804 13.36 29.804 29.84s-13.343 29.842-29.804 29.842h-447.06c-16.46 0-29.804-13.361-29.804-29.841z" fill="#ffffff" p-id="2202"></path></svg>