<?xml version="1.0" standalone="no"?><!DOCTYPE svg PUBLIC "-//W3C//DTD SVG 1.1//EN" "http://www.w3.org/Graphics/SVG/1.1/DTD/svg11.dtd"><svg t="1557195888690" class="icon" style="" viewBox="0 0 1024 1024" version="1.1" xmlns="http://www.w3.org/2000/svg" p-id="3152" xmlns:xlink="http://www.w3.org/1999/xlink" width="200" height="200"><defs><style type="text/css"></style></defs><path d="M218.453333 625.127619c54.613333 16.579048 117.028571 25.35619 180.906667 25.356191 16.579048 0 33.158095-0.487619 49.737143-1.950477 5.851429-15.60381 12.678095-30.72 21.455238-45.348571-23.405714 2.438095-47.299048 3.900952-71.192381 3.900952-82.407619 0-159.451429-14.628571-217.478095-41.447619-50.712381-23.405714-81.432381-54.613333-81.432381-82.407619V418.864762c27.794286 24.380952 68.266667 45.348571 117.51619 60.464762 54.613333 16.579048 117.028571 25.35619 180.906667 25.35619 63.878095 0 126.780952-8.777143 180.906667-25.35619C629.028571 464.213333 669.500952 443.733333 697.295238 418.864762v46.811428c4.87619 0 9.264762-0.487619 14.140952-0.487619 9.752381 0 19.504762 0.487619 28.769524 1.462858V191.634286c0-45.83619-36.08381-88.259048-101.912381-119.466667C575.390476 40.96 490.057143 24.380952 399.847619 24.380952c-90.697143 0-175.542857 17.066667-239.908571 47.786667C94.110476 103.862857 58.026667 146.285714 58.026667 191.634286V629.028571c0 45.83619 36.08381 88.259048 101.912381 119.466667 64.365714 30.72 149.211429 47.786667 239.908571 47.786667 12.190476 0 24.380952-0.487619 36.571429-0.975238-2.438095-14.140952-3.900952-28.769524-4.388572-42.910477-10.727619 0.487619-21.455238 0.975238-32.670476 0.975239-82.407619 0-159.451429-14.628571-217.478095-41.447619-50.712381-23.405714-81.432381-54.613333-81.432381-82.40762V565.638095c28.281905 23.893333 68.754286 44.373333 118.003809 59.489524zM181.881905 108.739048c58.026667-26.819048 135.070476-41.447619 217.478095-41.447619 82.407619 0 159.451429 14.628571 217.478095 41.447619 50.712381 23.405714 81.432381 54.613333 81.432381 82.407619 0 27.794286-30.232381 59.001905-81.432381 82.407619-58.026667 26.819048-135.070476 41.447619-217.478095 41.447619-82.407619 0-159.451429-14.628571-217.478095-41.447619C131.169524 250.148571 100.937143 219.428571 100.937143 191.634286c0-28.281905 30.232381-59.001905 80.944762-82.895238zM100.937143 273.066667c27.794286 24.380952 68.266667 45.348571 118.003809 60.464762 54.613333 16.579048 117.028571 25.35619 180.906667 25.35619 63.878095 0 126.780952-8.777143 180.906667-25.35619 49.249524-15.11619 89.721905-35.59619 118.003809-60.464762v63.878095c0 27.794286-30.232381 59.001905-81.432381 82.407619-58.026667 26.819048-135.070476 41.447619-217.478095 41.447619-82.407619 0-159.451429-14.628571-217.478095-41.447619C131.657143 395.946667 100.937143 364.739048 100.937143 336.944762V273.066667z" p-id="3153" fill="#ffffff"></path><path d="M891.855238 566.613333c-47.786667-47.786667-111.664762-74.118095-179.443809-74.118095-67.779048 0-131.657143 26.331429-179.44381 74.118095-98.986667 98.986667-98.986667 259.900952 0 358.887619 47.786667 47.786667 111.664762 74.118095 179.44381 74.118096 67.779048 0 131.657143-26.331429 179.443809-74.118096 98.986667-98.986667 98.986667-259.900952 0-358.887619z m-26.331428 333.04381c-40.96 40.472381-95.085714 62.415238-152.624762 62.415238-58.026667 0-112.152381-22.430476-152.624762-62.415238-40.96-40.472381-63.390476-94.110476-63.390476-151.161905s22.430476-111.177143 62.902857-151.161905c40.96-40.472381 95.085714-62.415238 152.624762-62.415238 58.026667 0 112.152381 22.430476 152.624761 62.415238 40.96 40.472381 63.390476 94.110476 63.390477 151.161905s-22.430476 110.689524-62.902857 151.161905z" p-id="3154" fill="#ffffff"></path><path d="M840.655238 673.401905c-8.289524-9.752381-23.405714-10.24-32.182857-1.462857l-135.070476 138.483809-52.175238-54.613333c-9.264762-9.752381-24.380952-9.752381-34.133334-0.487619a23.698286 23.698286 0 0 0-0.487619 33.158095l70.704762 74.605714c7.314286 7.314286 19.017143 7.801905 26.331429 0 33.645714-34.133333 121.417143-124.342857 156.038095-159.451428 8.289524-7.801905 8.777143-20.967619 0.975238-30.232381z" p-id="3155" fill="#ffffff"></path></svg>