<?xml version="1.0" standalone="no"?><!DOCTYPE svg PUBLIC "-//W3C//DTD SVG 1.1//EN" "http://www.w3.org/Graphics/SVG/1.1/DTD/svg11.dtd"><svg t="1557196245247" class="icon" style="" viewBox="0 0 1024 1024" version="1.1" xmlns="http://www.w3.org/2000/svg" p-id="2788" xmlns:xlink="http://www.w3.org/1999/xlink" width="200" height="200"><defs><style type="text/css"></style></defs><path d="M304.609091 475.587696l408.810826 0 0 60.920488-408.810826 0 0-60.920488Z" p-id="2789" fill="#ffffff"></path><path d="M304.609091 593.779561l408.810826 0 0 60.919465-408.810826 0 0-60.919465Z" p-id="2790" fill="#ffffff"></path><path d="M304.609091 711.971427l408.810826 0 0 60.919465-408.810826 0 0-60.919465Z" p-id="2791" fill="#ffffff"></path><path d="M841.829496 205.396997 611.878267 205.396997c0-56.489572-45.762253-102.20066-102.20066-102.20066-56.490595 0-102.20066 45.711088-102.20066 102.20066L177.525718 205.396997c-14.122649 0-25.549909 11.477402-25.549909 25.549909L151.975808 895.252731c0 14.07046 11.42726 25.550932 25.549909 25.550932l664.303778 0c14.072507 0 25.550932-11.480472 25.550932-25.550932L867.380428 230.947929C867.380428 216.875422 855.902002 205.396997 841.829496 205.396997zM509.677607 154.297179c28.194132 0 51.100842 22.905686 51.100842 51.100842 0 28.194132-22.906709 51.099818-51.100842 51.099818-28.246321 0-51.099818-22.905686-51.099818-51.099818C458.577788 177.202864 481.432309 154.297179 509.677607 154.297179zM802.374902 855.79609 216.981335 855.79609 216.981335 270.786263l88.294952 0 0 76.650751c0 14.072507 11.42726 25.549909 25.550932 25.549909l357.702821 0c14.071484 0 25.549909-11.477402 25.549909-25.549909l0-76.650751 88.294952 0L802.374902 855.79609z" p-id="2792" fill="#ffffff"></path></svg>