<?xml version="1.0" standalone="no"?><!DOCTYPE svg PUBLIC "-//W3C//DTD SVG 1.1//EN" "http://www.w3.org/Graphics/SVG/1.1/DTD/svg11.dtd"><svg t="1557196400580" class="icon" style="" viewBox="0 0 1026 1024" version="1.1" xmlns="http://www.w3.org/2000/svg" p-id="2545" xmlns:xlink="http://www.w3.org/1999/xlink" width="200.390625" height="200"><defs><style type="text/css"></style></defs><path d="M967.384615 403.692308l-98.461538-19.692308c-4.923077-14.769231-9.846154-27.076923-17.230769-41.846154l54.153846-83.692308c17.230769-24.615385 12.307692-59.076923-7.384616-81.230769L836.923077 115.692308c-12.307692-12.307692-29.538462-19.692308-44.307692-19.692308-12.307692 0-24.615385 2.461538-34.461539 9.846154l-83.692308 54.153846c-12.307692-7.384615-27.076923-12.307692-41.846153-17.230769l-19.692308-98.461539C608 22.153846 583.384615 0 551.384615 0h-86.153846c-29.538462 0-56.615385 22.153846-61.538461 51.692308l-19.692308 98.461538c-14.769231 4.923077-27.076923 9.846154-41.846154 17.230769l-83.692308-54.153846c-9.846154-7.384615-22.153846-9.846154-34.461538-9.846154-17.230769 0-32 7.384615-44.307692 19.692308L118.153846 179.692308c-22.153846 22.153846-24.615385 54.153846-7.384615 81.230769L164.923077 344.615385c-4.923077 12.307692-12.307692 24.615385-17.230769 39.384615l-98.461539 19.692308c-27.076923 4.923077-49.230769 32-49.230769 61.538461v86.153846c0 29.538462 22.153846 56.615385 51.692308 61.538462l98.461538 19.692308c4.923077 14.769231 9.846154 27.076923 17.230769 41.846153l-54.153846 83.692308c-17.230769 24.615385-12.307692 59.076923 7.384616 81.230769l61.538461 61.538462c12.307692 12.307692 29.538462 19.692308 44.307692 19.692308 12.307692 0 24.615385-2.461538 34.461539-9.846154l83.692308-54.153846c12.307692 7.384615 27.076923 12.307692 41.846153 17.230769l19.692308 98.461538c4.923077 29.538462 32 51.692308 61.538462 51.692308h86.153846c29.538462 0 56.615385-22.153846 61.538461-51.692308l19.692308-98.461538c14.769231-4.923077 27.076923-9.846154 41.846154-17.230769l83.692308 54.153846c9.846154 7.384615 22.153846 9.846154 34.461538 9.846154 17.230769 0 32-7.384615 44.307692-19.692308l61.538462-61.538462c22.153846-22.153846 24.615385-54.153846 7.384615-81.230769l-54.153846-83.692308c7.384615-12.307692 12.307692-27.076923 17.230769-41.846153l98.461539-19.692308c29.538462-4.923077 51.692308-32 51.692308-61.538462v-86.153846c-2.461538-29.538462-24.615385-56.615385-54.153847-61.538461z m-110.76923 167.384615c-22.153846 4.923077-39.384615 19.692308-46.769231 41.846154-4.923077 12.307692-9.846154 22.153846-14.769231 34.461538-9.846154 19.692308-7.384615 44.307692 4.923077 64l54.153846 83.692308-61.538461 61.538462-83.692308-54.153847c-9.846154-7.384615-22.153846-9.846154-34.461539-9.846153-9.846154 0-19.692308 2.461538-27.076923 7.384615-9.846154 4.923077-22.153846 9.846154-34.461538 14.769231-22.153846 7.384615-36.923077 24.615385-41.846154 46.769231l-19.692308 98.461538h-86.153846l-19.692307-98.461538c-4.923077-22.153846-19.692308-39.384615-41.846154-46.769231-12.307692-4.923077-22.153846-9.846154-34.461539-14.769231-9.846154-4.923077-17.230769-7.384615-27.076923-7.384615-12.307692 0-24.615385 2.461538-34.461538 9.846153l-83.692308 54.153847-61.538462-61.538462 54.153847-83.692308c12.307692-19.692308 14.769231-41.846154 4.923077-64-4.923077-9.846154-9.846154-22.153846-14.769231-34.461538-7.384615-22.153846-24.615385-36.923077-46.769231-41.846154l-98.461538-19.692308v-86.153846l98.461538-19.692307c22.153846-4.923077 39.384615-19.692308 46.769231-41.846154 4.923077-12.307692 9.846154-22.153846 14.769231-34.461539 9.846154-19.692308 7.384615-44.307692-4.923077-64L162.461538 224l61.538462-61.538462 83.692308 54.153847c9.846154 7.384615 22.153846 9.846154 34.461538 9.846153 9.846154 0 19.692308-2.461538 27.076923-7.384615 9.846154-4.923077 22.153846-9.846154 34.461539-14.769231 22.153846-7.384615 36.923077-24.615385 41.846154-46.76923l19.692307-98.461539h86.153846l19.692308 98.461539c4.923077 22.153846 19.692308 39.384615 41.846154 46.76923 12.307692 4.923077 22.153846 9.846154 34.461538 14.769231 9.846154 4.923077 17.230769 7.384615 27.076923 7.384615 12.307692 0 24.615385-2.461538 34.461539-9.846153l83.692308-54.153847 61.538461 61.538462-54.153846 83.692308c-12.307692 19.692308-14.769231 41.846154-4.923077 64 4.923077 9.846154 9.846154 22.153846 14.769231 34.461538 7.384615 22.153846 24.615385 36.923077 46.769231 41.846154l98.461538 19.692308v86.153846l-98.461538 17.230769z" fill="#ffffff" p-id="2546"></path><path d="M509.538462 322.461538c-103.384615 0-187.076923 83.692308-187.076924 187.076924 0 103.384615 83.692308 187.076923 187.076924 187.076923 103.384615 0 187.076923-83.692308 187.076923-187.076923-2.461538-103.384615-83.692308-187.076923-187.076923-187.076924z m0 317.538462c-73.846154 0-130.461538-59.076923-130.461539-130.461538 0-73.846154 59.076923-130.461538 130.461539-130.461539 73.846154 0 130.461538 59.076923 130.461538 130.461539S580.923077 640 509.538462 640z" fill="#ffffff" p-id="2547"></path></svg>