<?xml version="1.0" standalone="no"?><!DOCTYPE svg PUBLIC "-//W3C//DTD SVG 1.1//EN" "http://www.w3.org/Graphics/SVG/1.1/DTD/svg11.dtd"><svg t="1557195807243" class="icon" style="" viewBox="0 0 1024 1024" version="1.1" xmlns="http://www.w3.org/2000/svg" p-id="2392" xmlns:xlink="http://www.w3.org/1999/xlink" width="200" height="200"><defs><style type="text/css"></style></defs><path d="M113.884079 910.042779H911.36008c25.892553-2.559998 23.332555 5.193139 23.332555-23.332555v-64.731383c0-36.278831-7.753137-44.031969-44.031968-44.031968h-155.355318c-20.699414-15.506275-23.332555-36.278831-28.452551-41.398828-90.623935-100.937071-38.838829-168.301594 18.139416-261.485527 10.386278-12.946276 20.699414-25.892553 28.452551-41.398828a280.722085 280.722085 0 0 0 36.278831-139.7759c0-160.548457-129.462765-292.57122-292.57122-292.57122-160.548457 0-292.57122 129.462765-292.571219 292.57122 0 67.291381 23.332555 129.462765 62.171384 178.61473 62.171384 98.377073 163.108455 178.61473 0 305.517496H111.397223c-28.452551 0-44.031969 15.506275-44.031968 44.031968v67.291381c-0.073143 25.892553 18.066273 20.699414 46.518824 20.699414z m864.767382 44.031968H23.333286a23.259412 23.259412 0 0 0-23.332555 23.332555v23.332555c0 12.873134 10.386278 23.259412 23.332555 23.259412h952.758177a23.259412 23.259412 0 0 0 23.332555-23.332555v-23.332555c-0.073143-12.873134-10.386278-23.259412-20.772557-23.259412z" p-id="2393" fill="#ffffff"></path></svg>