<?xml version="1.0" standalone="no"?><!DOCTYPE svg PUBLIC "-//W3C//DTD SVG 1.1//EN" "http://www.w3.org/Graphics/SVG/1.1/DTD/svg11.dtd"><svg t="1557196015379" class="icon" style="" viewBox="0 0 1027 1024" version="1.1" xmlns="http://www.w3.org/2000/svg" p-id="4148" xmlns:xlink="http://www.w3.org/1999/xlink" width="200.5859375" height="200"><defs><style type="text/css"></style></defs><path d="M557.915192 543.684523l0.121629-1.702815c-16.176743-13.257632-31.258819-17.14978-44.273191-16.784891h-0.729778c-12.892743-0.364889-28.096449 3.52726-44.273192 16.784891l0.12163 1.702815s10.825039 28.704597 27.001782 45.367859l-51.327711 119.561943 68.355861 62.274379 0.364889-0.364889 0.364889-0.364889v0.729778l68.355862-62.274379-51.327711-119.561943c16.420002-16.663262 27.245041-45.367858 27.245041-45.367859z" p-id="4149" fill="#ffffff"></path><path d="M513.398741 4.378667C229.880033 4.378667 0 232.312626 0 513.398741S229.880033 1022.297185 513.520371 1022.297185c283.518708 0 513.520371-227.812329 513.52037-508.898444C1026.919112 232.312626 797.039078 4.500297 513.398741 4.378667zM668.84143 783.294928H357.956052c-43.665043 0-79.059271-35.029338-79.059271-78.329493 0-2.189334 0.12163-4.378667 0.243259-6.446371 0.486519-6.203112 1.702815-12.284594 3.64889-18.122817 21.163559-85.748901 90.492458-152.766837 177.822544-171.497803 0.729778 0.243259 1.459556 0.486519 2.189334 0.851408 0.12163 0 0.364889-0.12163 0.486518-0.12163-55.828008-20.312151-95.600903-73.464307-95.600902-135.860316 0-79.789049 65.43675-144.617651 146.077206-144.617651s145.955577 64.828602 145.955577 144.617651c0 61.666231-38.921487 114.331868-93.776458 135.130538 87.451716 18.730966 156.658986 85.748901 177.822544 171.497803 1.946074 5.838223 3.162371 11.919705 3.648889 18.122817 0.12163 2.189334 0.243259 4.257038 0.24326 6.446371 0.243259 43.178525-35.150968 78.329493-78.816012 78.329493z" p-id="4150" fill="#ffffff"></path></svg>